<?xml version="1.0" standalone="no"?>
<!DOCTYPE svg PUBLIC "-//W3C//DTD SVG 20010904//EN"
 "http://www.w3.org/TR/2001/REC-SVG-20010904/DTD/svg10.dtd">
<svg version="1.0" xmlns="http://www.w3.org/2000/svg"
 width="32.000000pt" height="32.000000pt" viewBox="0 0 32.000000 32.000000"
 preserveAspectRatio="xMidYMid meet">

<g transform="translate(0.000000,32.000000) scale(0.100000,-0.100000)"
fill="#000000" stroke="none">
<path d="M115 283 c3 -16 2 -22 -1 -15 -8 17 -27 15 -21 -2 9 -22 -19 -41 -30
-21 -6 10 -16 13 -26 9 -23 -8 -21 -21 3 -29 22 -7 23 -9 14 -42 -3 -12 -15
-23 -28 -25 -11 -2 -20 -7 -18 -13 2 -5 12 -9 22 -7 24 4 26 -11 4 -33 -21
-21 -12 -30 15 -14 25 16 42 2 18 -16 -10 -7 -15 -19 -11 -29 9 -22 21 -20 27
5 8 30 32 18 30 -15 -2 -30 16 -35 24 -6 4 15 14 20 39 20 19 0 34 -4 34 -10
0 -5 12 -10 27 -10 25 0 25 1 10 18 -23 25 -21 42 3 42 11 0 20 -5 20 -11 0
-5 5 -7 12 -3 8 5 6 11 -5 19 -23 17 -21 28 2 15 24 -12 31 -13 31 -1 0 5 -11
12 -25 15 -36 9 -32 36 5 36 17 0 30 5 30 10 0 6 -11 10 -25 10 -28 0 -35 24
-9 34 8 3 12 11 9 17 -5 8 -10 8 -18 0 -27 -27 -46 0 -24 35 7 12 0 24 -15 24
-4 0 -8 -7 -8 -15 0 -8 -4 -15 -10 -15 -5 0 -13 0 -17 0 -5 0 -8 10 -8 22 0
12 -6 23 -12 25 -8 3 -13 -4 -13 -16 0 -31 -19 -35 -30 -7 -13 35 -32 33 -25
-1z m100 -112 c6 -10 -51 -42 -59 -33 -9 9 -7 24 3 18 4 -3 17 1 27 9 23 17
22 17 29 6z"/>
</g>
</svg>
